<svg version="1.2" xmlns="http://www.w3.org/2000/svg" viewBox="0 0 35 35" width="35" height="35">
	<title>bot-svg</title>
	<style>
		.s0 { fill: #ffffff } 
	</style>
	<g id="bot">
		<path id="Icon_ionic-ios-close" class="s0" d="m17.2 17.7l0.5 0.5q0 0.1 0 0.1 0.1 0 0.1-0.1 0 0 0 0 0-0.1 0-0.1l-0.5-0.5 0.5-0.5q0 0 0-0.1 0 0 0-0.1 0 0-0.1 0 0 0 0 0l-0.5 0.5-0.5-0.5q-0.1 0-0.1 0-0.1 0-0.1 0 0 0.1 0 0.1 0 0.1 0 0.1l0.5 0.5-0.5 0.5q0 0 0 0.1 0 0 0 0 0 0.1 0.1 0.1 0 0 0.1-0.1z"/>
		<g id="Group_19408">
			<path id="Path_1" fill-rule="evenodd" class="s0" d="m26.5 7.2q0.8 0.3 1.4 0.9 0.6 0.6 0.9 1.4 0.4 0.8 0.4 1.7v14.6q0 0.8-0.4 1.6-0.3 0.8-0.9 1.4-0.6 0.6-1.4 0.9-0.8 0.3-1.6 0.3h-4.9l-6.7 4.2q-0.2 0.1-0.4 0.1-0.2 0-0.4-0.1-0.2-0.1-0.4-0.3-0.1-0.2-0.1-0.4v-3.5h-2.6q-0.8 0-1.6-0.3-0.8-0.3-1.4-0.9-0.6-0.6-0.9-1.4-0.3-0.8-0.4-1.6v-14.6q0.1-0.9 0.4-1.7 0.3-0.8 0.9-1.4 0.6-0.6 1.4-0.9 0.8-0.3 1.6-0.3h0.9v-1.9c-1.2-0.4-1.9-1.6-1.7-2.9 0.2-1.2 1.3-2.1 2.6-2.1 1.2 0 2.3 0.9 2.5 2.1 0.2 1.3-0.5 2.5-1.7 2.9v1.9h10.3v-1.9c-1.2-0.4-1.9-1.6-1.7-2.9 0.2-1.2 1.3-2.1 2.6-2.1 1.2 0 2.3 0.9 2.5 2.1 0.2 1.3-0.5 2.5-1.7 2.9v1.9h0.9q0.8 0 1.6 0.3zm-14.6 5q-0.5 0.2-0.8 0.6-0.4 0.3-0.6 0.8-0.2 0.5-0.2 1 0 0.4 0.2 0.6 0.3 0.3 0.7 0.3 0.3 0 0.6-0.3 0.2-0.2 0.2-0.6 0-0.4 0.3-0.6 0.2-0.3 0.6-0.3 0.3 0 0.6 0.3 0.2 0.2 0.2 0.6 0 0.4 0.3 0.6 0.2 0.3 0.6 0.3 0.3 0 0.6-0.3 0.2-0.2 0.2-0.6 0-0.5-0.2-1-0.1-0.5-0.5-0.8-0.4-0.4-0.8-0.6-0.5-0.2-1-0.2-0.5 0-1 0.2zm12.1 10q0.1-0.4-0.1-0.7-0.1-0.3-0.5-0.4-0.3-0.1-0.6 0-1.3 0.6-2.8 0.9-1.4 0.3-2.8 0.3-1.5 0-2.9-0.3-1.4-0.3-2.8-0.9-0.3-0.1-0.6 0-0.4 0.1-0.5 0.4-0.2 0.3-0.1 0.7 0.2 0.3 0.5 0.5 1.5 0.6 3.1 1 1.6 0.3 3.3 0.3 1.6 0 3.2-0.3 1.7-0.4 3.2-1 0.3-0.2 0.4-0.5zm-0.5-6.8q0.2-0.1 0.3-0.2 0.1-0.1 0.2-0.3 0-0.1 0-0.3c0-0.7-0.3-1.3-0.7-1.8-0.5-0.5-1.2-0.7-1.8-0.7-0.7 0-1.4 0.2-1.8 0.7-0.5 0.5-0.8 1.1-0.8 1.8q0 0.3 0.2 0.6 0.3 0.2 0.6 0.3 0.4-0.1 0.6-0.3 0.3-0.3 0.3-0.6 0-0.4 0.2-0.6 0.3-0.3 0.7-0.3 0.3 0 0.6 0.3 0.2 0.2 0.2 0.6 0 0.2 0.1 0.3 0 0.2 0.2 0.3 0.1 0.1 0.2 0.2 0.2 0.1 0.4 0.1 0.1 0 0.3-0.1z"/>
			<path id="Path_2" class="s0" d="m31.7 13.7h-0.8v8.6h0.8q0.6 0 1-0.2 0.5-0.2 0.9-0.5 0.3-0.4 0.5-0.9 0.2-0.4 0.2-1v-3.4q0-0.5-0.2-1-0.2-0.4-0.5-0.8-0.4-0.4-0.9-0.6-0.4-0.2-1-0.2z"/>
			<path id="Path_3" class="s0" d="m0 16.3v3.4q0 0.6 0.2 1 0.2 0.5 0.6 0.9 0.3 0.3 0.8 0.5 0.5 0.2 1 0.2h0.8v-8.6h-0.8q-0.5 0-1 0.2-0.5 0.2-0.8 0.6-0.4 0.4-0.6 0.8-0.2 0.5-0.2 1z"/>
		</g>
	</g>
</svg>