<svg version="1.2" xmlns="http://www.w3.org/2000/svg" viewBox="0 0 20 20" width="20" height="20">
	<title>close-chat-svg</title>
	<style>
		.s0 { fill: #ffffff } 
	</style>
	<g id="bot">
		<path id="Path_1" fill-rule="evenodd" class="s0" d="m10.6 8.5q0.1 0 0.1 0.1 0.1 0 0.1 0.1 0 0.1 0 0.1v1.3q0 0.1 0 0.1 0 0.1-0.1 0.2 0 0-0.1 0 0 0.1-0.1 0.1h-0.4l-0.6 0.3q0 0-0.1 0 0 0 0 0 0 0 0 0 0 0 0 0v-0.3h-0.3q0 0-0.1-0.1-0.1 0-0.1 0-0.1-0.1-0.1-0.2 0 0 0-0.1v-1.3q0 0 0-0.1 0-0.1 0.1-0.1 0-0.1 0.1-0.1 0.1 0 0.1 0h0.1v-0.2c-0.1 0-0.1-0.1-0.1-0.2 0-0.1 0.1-0.2 0.2-0.2 0.1 0 0.2 0.1 0.2 0.2 0 0.1 0 0.2-0.1 0.2v0.2h0.9v-0.2c-0.1 0-0.2-0.1-0.2-0.2 0-0.1 0.1-0.2 0.2-0.2 0.1 0 0.2 0.1 0.2 0.2 0.1 0.1 0 0.2-0.1 0.2v0.2h0.1q0.1 0 0.1 0zm-1.2 0.4q-0.1 0.1-0.1 0.1 0 0-0.1 0.1 0 0 0 0 0 0.1 0 0.1 0.1 0 0.1 0 0 0 0 0 0.1 0 0.1-0.1 0 0 0 0 0 0 0 0 0.1 0 0.1 0 0 0 0 0 0 0.1 0 0.1 0.1 0 0.1 0 0 0 0 0 0.1 0 0.1-0.1 0 0-0.1 0 0-0.1 0-0.1 0 0-0.1-0.1 0 0-0.1 0 0 0 0 0zm1 0.9q0 0 0-0.1 0 0 0 0-0.1 0-0.1 0-0.1 0.1-0.2 0.1-0.2 0-0.3 0-0.1 0-0.2 0-0.2 0-0.3-0.1 0 0 0 0-0.1 0-0.1 0 0 0.1 0 0.1 0 0 0.1 0 0.1 0.1 0.2 0.1 0.2 0.1 0.3 0.1 0.2 0 0.3-0.1 0.1 0 0.3-0.1 0 0 0 0zm0-0.6q0 0 0 0 0 0 0 0 0 0 0-0.1 0-0.1-0.1-0.1 0-0.1-0.1-0.1-0.1 0-0.2 0.1 0 0 0 0.1 0 0.1 0 0.1 0 0 0 0 0.1 0 0.1 0 0 0 0-0.1 0 0 0 0 0.1 0 0.1 0 0 0 0 0 0.1 0 0.1 0 0 0.1 0 0.1 0 0 0 0 0 0 0 0 0 0 0 0 0 0 0.1 0z"/>
		<path id="Path_2" class="s0" d="m11.1 9.1h-0.1v0.7h0.1q0 0 0.1 0 0 0 0-0.1 0.1 0 0.1 0 0-0.1 0-0.1v-0.3q0-0.1 0-0.1 0 0-0.1-0.1 0 0 0 0-0.1 0-0.1 0z"/>
		<path id="Path_3" class="s0" d="m8.3 9.3v0.3q0 0 0 0.1 0.1 0 0.1 0 0 0.1 0.1 0.1 0 0 0.1 0v-0.7q-0.1 0-0.1 0-0.1 0-0.1 0 0 0.1-0.1 0.1 0 0 0 0.1z"/>
		<path id="Icon_ionic-ios-close" class="s0" d="m12.1 9.8l7-7c0.3-0.3 0.5-0.7 0.5-1.2 0-0.4-0.2-0.8-0.5-1.1-0.3-0.3-0.7-0.5-1.1-0.5-0.5 0-0.9 0.2-1.2 0.5l-7 7-7-7c-0.3-0.3-0.7-0.5-1.2-0.5-0.4 0-0.8 0.2-1.1 0.5-0.3 0.3-0.5 0.7-0.5 1.1 0 0.5 0.2 0.9 0.5 1.2l7 7-7 7c-0.3 0.3-0.5 0.7-0.5 1.2 0 0.4 0.2 0.8 0.5 1.1 0.3 0.3 0.7 0.5 1.1 0.5 0.5 0 0.9-0.2 1.2-0.5l7-7 7 7c0.3 0.3 0.7 0.5 1.2 0.5 0.4 0 0.8-0.2 1.1-0.5 0.4-0.3 0.5-0.7 0.5-1.1 0-0.5-0.1-0.9-0.5-1.2z"/>
	</g>
</svg>