<svg xmlns="http://www.w3.org/2000/svg" width="7.43" height="9.51" viewBox="0 0 7.43 9.51">
  <path id="garbage" d="M62.655,2.823H56.763c-.006.072-.028-.314.4,6.085a.647.647,0,0,0,.644.6h3.806a.647.647,0,0,0,.644-.6C62.683,2.5,62.661,2.894,62.655,2.823Zm-4.109,5.5a.3.3,0,0,1-.322-.27l-.3-3.418a.3.3,0,1,1,.592-.052L58.816,8A.3.3,0,0,1,58.546,8.32Zm1.46-.3a.3.3,0,1,1-.594,0V4.607a.3.3,0,1,1,.594,0Zm1.485-3.392-.3,3.418A.3.3,0,0,1,60.6,8l.3-3.418a.3.3,0,1,1,.592.052ZM62.778,1.04H61.341c0-.039,0-.01,0-.395A.646.646,0,0,0,60.7,0H58.72a.646.646,0,0,0-.645.645c0,.377,0,.355,0,.395H56.64a.646.646,0,0,0-.645.645c0,.531,0,.506,0,.543h7.426c0-.038,0-.015,0-.543A.646.646,0,0,0,62.778,1.04ZM60.749.989a.051.051,0,0,1-.051.051H58.72a.051.051,0,0,1-.051-.051V.645A.051.051,0,0,1,58.72.594H60.7a.051.051,0,0,1,.051.051Z" transform="translate(-55.994)" fill="#193674"/>
</svg>
