<svg xmlns="http://www.w3.org/2000/svg" width="31.794" height="31.81" viewBox="0 0 31.794 31.81">
  <g id="diamond_1_" data-name="diamond (1)" transform="translate(-4.014 -4)">
    <path id="Path_5020" data-name="Path 5020" d="M14.485,12.652c.011-.034.017-.068.028-.1H10.8A2.958,2.958,0,0,0,8.469,13.7L4.641,18.736a2.9,2.9,0,0,0-.551,1.25h8.322Z" transform="translate(-0.033 -3.693)" fill="#1d63ff"/>
    <path id="Path_5021" data-name="Path 5021" d="M12.43,27.64H4.12a2.873,2.873,0,0,0,.585,1.233l12.843,15.9-.062-.21Z" transform="translate(-0.046 -10.212)" fill="#1d63ff"/>
    <path id="Path_5022" data-name="Path 5022" d="M36.337,44.562c-.558,1.058,12.894-15.944,12.781-15.689a2.954,2.954,0,0,0,.591-1.233H41.393Z" transform="translate(-13.955 -10.212)" fill="#1d63ff"/>
    <path id="Path_5023" data-name="Path 5023" d="M47.6,13.7a2.958,2.958,0,0,0-2.335-1.153H41.55a.827.827,0,0,1,.04.108l2.068,7.328h8.322a2.9,2.9,0,0,0-.551-1.25Z" transform="translate(-16.215 -3.693)" fill="#1d63ff"/>
    <path id="Path_5024" data-name="Path 5024" d="M20.84,27.64l4.959,16.6.4,1.341c.126.429.606.436.977.443s.851-.013.977-.443l.4-1.341,4.959-16.6Z" transform="translate(-7.268 -10.212)" fill="#1d63ff"/>
    <path id="Path_5025" data-name="Path 5025" d="M33.52,19.985c-.117-.422-1.913-6.8-1.977-7.021A.566.566,0,0,0,31,12.55H23.352c-.573-.023-.616.747-.75,1.136l-1.772,6.3Z" transform="translate(-7.264 -3.693)" fill="#1d63ff"/>
    <path id="Path_5026" data-name="Path 5026" d="M11.5,49.419a3.776,3.776,0,0,1-2.965-2.965.568.568,0,0,0-1.113,0A3.776,3.776,0,0,1,4.46,49.419a.57.57,0,0,0,0,1.113A3.776,3.776,0,0,1,7.426,53.5a.568.568,0,0,0,1.113,0A3.776,3.776,0,0,1,11.5,50.533a.57.57,0,0,0,0-1.113Z" transform="translate(0 -18.143)" fill="#1d63ff"/>
    <path id="Path_5027" data-name="Path 5027" d="M50.46,7.4a2.332,2.332,0,0,1,1.829,1.829.568.568,0,0,0,1.113,0A2.332,2.332,0,0,1,55.232,7.4a.57.57,0,0,0,0-1.113A2.331,2.331,0,0,1,53.4,4.454a.568.568,0,0,0-1.113,0A2.331,2.331,0,0,1,50.46,6.283a.57.57,0,0,0,0,1.113Z" transform="translate(-19.871)" fill="#1d63ff"/>
  </g>
</svg>
