<svg xmlns="http://www.w3.org/2000/svg" width="8.581" height="8.572" viewBox="0 0 8.581 8.572">
  <g id="pencil" transform="translate(0 -0.247)">
    <path id="Path_8208" data-name="Path 8208" d="M5.3,82.473.578,87.195a.188.188,0,0,0-.049.086l-.523,2.1a.186.186,0,0,0,.225.225l2.1-.523a.185.185,0,0,0,.086-.049l4.722-4.722Zm0,0" transform="translate(0 -80.793)" fill="#193674"/>
    <path id="Path_8209" data-name="Path 8209" d="M336.812,1.035,336.286.51a.952.952,0,0,0-1.314,0l-.644.644,1.84,1.84.644-.644a.93.93,0,0,0,0-1.314Zm0,0" transform="translate(-328.503)" fill="#193674"/>
  </g>
</svg>
