<?xml version="1.0" encoding="utf-8"?>
<!-- Generator: Adobe Illustrator 23.0.5, SVG Export Plug-In . SVG Version: 6.00 Build 0)  -->
<svg version="1.1" id="Layer_1" xmlns="http://www.w3.org/2000/svg" xmlns:xlink="http://www.w3.org/1999/xlink" x="0px" y="0px"
	 viewBox="0 0 26.6 36.3" style="enable-background:new 0 0 26.6 36.3;" xml:space="preserve">
<style type="text/css">
	.st0{fill:#1D63FF;}
</style>
<g id="gold_inactive" transform="translate(-595 -2437)">
	<g id="award" transform="translate(615.5 2456)">
		<path id="Path_5028" class="st0" d="M2.8-5.4C2.8,0.3-1.8,4.9-7.5,4.9S-17.9,0.3-17.9-5.4s4.6-10.3,10.3-10.3S2.8-11.1,2.8-5.4
			L2.8-5.4z"/>
		<path id="Path_5029" class="st0" d="M0.7,3.8C-4,8-11.1,8-15.8,3.8v6.4c0,2.2,0,3.2,0.7,3.5c0.7,0.3,1.5-0.4,3.2-1.8l1.3-1.1
			c1.5-1.2,2.2-1.8,3.1-1.8s1.6,0.6,3.1,1.8l1.3,1.1c1.7,1.4,2.5,2.1,3.2,1.8s0.7-1.4,0.7-3.5L0.7,3.8z"/>
	</g>
</g>
</svg>
