<svg xmlns="http://www.w3.org/2000/svg" width="14.868" height="14.869" viewBox="0 0 14.868 14.869">
  <g id="help-web-button" transform="translate(3.009 1.017)">
    <path id="Path_8215" data-name="Path 8215" d="M7.442,0a7.434,7.434,0,1,0,7.434,7.43A7.433,7.433,0,0,0,7.442,0Zm.53,11.567a.875.875,0,0,1-.6.231.905.905,0,0,1-.614-.228.8.8,0,0,1-.263-.637.821.821,0,0,1,.254-.611.856.856,0,0,1,.622-.248.846.846,0,0,1,.859.859A.806.806,0,0,1,7.972,11.567ZM10.125,6.23a2.628,2.628,0,0,1-.473.637q-.273.268-.983.9a4.068,4.068,0,0,0-.314.314,1.279,1.279,0,0,0-.176.248,1.2,1.2,0,0,0-.089.225q-.032.112-.1.395a.641.641,0,0,1-.686.6.7.7,0,0,1-.5-.2.77.77,0,0,1-.2-.582,2.146,2.146,0,0,1,.15-.839,2.12,2.12,0,0,1,.4-.623,9.114,9.114,0,0,1,.669-.637q.369-.323.533-.487a1.648,1.648,0,0,0,.277-.366.881.881,0,0,0,.112-.438A1.017,1.017,0,0,0,8.4,4.6a1.253,1.253,0,0,0-.885-.317,1.224,1.224,0,0,0-.934.32,2.553,2.553,0,0,0-.507.942q-.2.652-.744.652a.732.732,0,0,1-.545-.228.7.7,0,0,1-.222-.493,2.086,2.086,0,0,1,.352-1.11A2.706,2.706,0,0,1,5.937,3.44a3.227,3.227,0,0,1,1.573-.369,3.357,3.357,0,0,1,1.475.309,2.392,2.392,0,0,1,.989.839,2.058,2.058,0,0,1,.349,1.153A1.775,1.775,0,0,1,10.125,6.23Z" transform="translate(-3.017 -1.017)" fill="#193674"/>
  </g>
</svg>
