<svg id="help" xmlns="http://www.w3.org/2000/svg" width="15.245" height="15.245" viewBox="0 0 15.245 15.245">
  <path id="Path_8213" data-name="Path 8213" d="M208.009,203.081a4.943,4.943,0,0,0-2.711-4.4,6.722,6.722,0,0,1-6.618,6.618,4.929,4.929,0,0,0,6.909,2.026l2.4.664-.664-2.4A4.91,4.91,0,0,0,208.009,203.081Zm0,0" transform="translate(-192.764 -192.764)" fill="#193674"/>
  <path id="Path_8214" data-name="Path 8214" d="M11.642,5.821A5.821,5.821,0,1,0,.807,8.78L.021,11.621l2.841-.786a5.822,5.822,0,0,0,8.78-5.014ZM4.928,4.466H4.035A1.787,1.787,0,1,1,7.027,5.785l-.759.695v.7H5.374V6.086l1.049-.96a.884.884,0,0,0,.291-.659.893.893,0,1,0-1.787,0Zm.447,3.6h.893v.893H5.374Zm0,0" fill="#193674"/>
</svg>
