<svg xmlns="http://www.w3.org/2000/svg" width="13.248" height="13.25" viewBox="0 0 13.248 13.25">
  <path id="home" d="M12.892,5.763h0l-5.4-5.4a1.22,1.22,0,0,0-1.725,0l-5.4,5.4-.005.006a1.219,1.219,0,0,0,.812,2.078l.038,0h.215v3.977A1.429,1.429,0,0,0,2.846,13.25H4.961a.388.388,0,0,0,.388-.388V9.743A.652.652,0,0,1,6,9.092H7.247a.652.652,0,0,1,.651.651v3.118a.388.388,0,0,0,.388.388H10.4a1.429,1.429,0,0,0,1.428-1.427V7.845h.2a1.22,1.22,0,0,0,.863-2.082Zm0,0" transform="translate(0)" fill="#193674"/>
</svg>
