<svg xmlns="http://www.w3.org/2000/svg" width="146.896" height="43" viewBox="0 0 146.896 43">
  <g id="Group_3" data-name="Group 3" transform="translate(-104 -64.853)">
    <g id="Group_2" data-name="Group 2" transform="translate(104 63)">
      <path id="Path_8236" data-name="Path 8236" d="M15.036-14.84a1.558,1.558,0,0,1-.294.938,2.189,2.189,0,0,1-.686.63,9.441,9.441,0,0,0-1.624-.868,5.811,5.811,0,0,0-2.268-.392,5.423,5.423,0,0,0-2.758.686A4.594,4.594,0,0,0,5.558-11.8,7.564,7.564,0,0,0,4.9-8.484,6.2,6.2,0,0,0,6.384-3.99a5.255,5.255,0,0,0,3.948,1.526A6.351,6.351,0,0,0,12.6-2.828a8.032,8.032,0,0,0,1.652-.84,1.944,1.944,0,0,1,.63.658,1.812,1.812,0,0,1,.266.966,1.64,1.64,0,0,1-.238.868,2.036,2.036,0,0,1-.826.7,7.1,7.1,0,0,1-1.61.616A9.88,9.88,0,0,1,9.912.42,9.835,9.835,0,0,1,5.53-.546a7.234,7.234,0,0,1-3.122-2.94,9.829,9.829,0,0,1-1.148-5,9.723,9.723,0,0,1,1.148-4.928,7.639,7.639,0,0,1,3.08-3.01,8.9,8.9,0,0,1,4.228-1.022,9.67,9.67,0,0,1,2.814.364,4.9,4.9,0,0,1,1.848.952A1.715,1.715,0,0,1,15.036-14.84ZM30.324-5.656H26.88v-2.52a2.555,2.555,0,0,0-.77-2.072,2.93,2.93,0,0,0-1.946-.644,4.167,4.167,0,0,0-1.75.364,6.435,6.435,0,0,0-1.386.84l-.2-2.8a9.92,9.92,0,0,1,1.652-.77,6.422,6.422,0,0,1,2.268-.378A5.979,5.979,0,0,1,28.8-12.32a4.966,4.966,0,0,1,1.526,3.976ZM18.088-7.392h3.444V-.056A3.637,3.637,0,0,1,20.888.1a5.638,5.638,0,0,1-.924.07,2.336,2.336,0,0,1-1.414-.35,1.473,1.473,0,0,1-.462-1.246Zm8.792.028h3.444V-.056A3.639,3.639,0,0,1,29.666.1a5.711,5.711,0,0,1-.91.07,2.327,2.327,0,0,1-1.428-.35,1.5,1.5,0,0,1-.448-1.246ZM21.532-5.628H18.088V-18.2q.224-.056.644-.14a4.72,4.72,0,0,1,.924-.084,2.327,2.327,0,0,1,1.428.35,1.5,1.5,0,0,1,.448,1.246ZM39.116-2.212a6.246,6.246,0,0,0,1.512-.168,3.5,3.5,0,0,0,.98-.364V-5.936l-2.772.28a3.617,3.617,0,0,0-1.75.49,1.344,1.344,0,0,0-.6,1.19,1.518,1.518,0,0,0,.644,1.288A3.354,3.354,0,0,0,39.116-2.212Zm-.14-11.424a7.365,7.365,0,0,1,4.368,1.162A4.186,4.186,0,0,1,44.968-8.82v6.44a1.627,1.627,0,0,1-.322,1.064,3.243,3.243,0,0,1-.826.7,7.72,7.72,0,0,1-1.988.742A11.478,11.478,0,0,1,39.116.42a7.772,7.772,0,0,1-4.4-1.078,3.615,3.615,0,0,1-1.6-3.206,3.528,3.528,0,0,1,1.19-2.87,6.269,6.269,0,0,1,3.458-1.218l3.808-.392v-.5a1.8,1.8,0,0,0-.77-1.624,3.949,3.949,0,0,0-2.17-.5,8.12,8.12,0,0,0-2.128.28,10.636,10.636,0,0,0-1.848.672,2.127,2.127,0,0,1-.5-.616,1.615,1.615,0,0,1-.224-.812,1.57,1.57,0,0,1,1.12-1.484,6.964,6.964,0,0,1,1.834-.532A13.185,13.185,0,0,1,38.976-13.636Zm9.548,6.244h3.444v3.3a1.509,1.509,0,0,0,.546,1.316,2.636,2.636,0,0,0,1.554.392,4.587,4.587,0,0,0,.966-.112,4.274,4.274,0,0,0,.882-.28,2.949,2.949,0,0,1,.364.532,1.561,1.561,0,0,1,.168.756,1.584,1.584,0,0,1-.77,1.344,4.268,4.268,0,0,1-2.394.532A5.529,5.529,0,0,1,49.8-.6a3.852,3.852,0,0,1-1.274-3.234Zm2.1-2.856v-2.716h5.488a3.451,3.451,0,0,1,.238.56,2.3,2.3,0,0,1,.126.756,1.463,1.463,0,0,1-.336,1.05,1.15,1.15,0,0,1-.868.35Zm1.344,3.612H48.524v-10.08a4.345,4.345,0,0,1,.658-.168,4.781,4.781,0,0,1,.91-.084,2.327,2.327,0,0,1,1.428.35,1.5,1.5,0,0,1,.448,1.246ZM69.216-9.772v1.848h-7.7V-9.772ZM66-7.924l.9-1.4a7.049,7.049,0,0,1,3.164.63,4.484,4.484,0,0,1,1.89,1.666,4.384,4.384,0,0,1,.63,2.324,4.239,4.239,0,0,1-1.834,3.78A9.329,9.329,0,0,1,65.52.308q-.756,0-1.512-.042T62.524.112Q61.8,0,61.124-.168,59.948-.5,59.948-1.456V-15.792a.979.979,0,0,1,.238-.7,1.378,1.378,0,0,1,.686-.364,10.575,10.575,0,0,1,2.03-.378q1.078-.1,2.31-.1A9.083,9.083,0,0,1,70.14-16.2,3.828,3.828,0,0,1,71.9-12.74a4.263,4.263,0,0,1-.574,2.17,4.035,4.035,0,0,1-1.848,1.6,8.051,8.051,0,0,1-3.4.6l-.252-1.4a4.372,4.372,0,0,0,2.8-.77,2.6,2.6,0,0,0,.952-2.142,2.288,2.288,0,0,0-1.106-2.086,6.265,6.265,0,0,0-3.262-.686q-.952,0-1.68.07t-1.344.182V-1.876a14.387,14.387,0,0,0,1.554.224q.882.084,1.778.084a6.5,6.5,0,0,0,3.528-.784,2.673,2.673,0,0,0,1.2-2.408,2.792,2.792,0,0,0-1.078-2.31A5.04,5.04,0,0,0,66-7.924Zm22.26,1.456a7.863,7.863,0,0,1-.784,3.612A5.684,5.684,0,0,1,85.26-.476a6.506,6.506,0,0,1-3.36.84,6.582,6.582,0,0,1-3.374-.84A5.658,5.658,0,0,1,76.3-2.856a7.863,7.863,0,0,1-.784-3.612,7.728,7.728,0,0,1,.8-3.626,5.768,5.768,0,0,1,2.24-2.366A6.526,6.526,0,0,1,81.9-13.3a6.45,6.45,0,0,1,3.332.84,5.8,5.8,0,0,1,2.226,2.366A7.727,7.727,0,0,1,88.256-6.468ZM81.9-11.452a3.677,3.677,0,0,0-2.982,1.33,5.546,5.546,0,0,0-1.106,3.654A5.633,5.633,0,0,0,78.89-2.8,3.675,3.675,0,0,0,81.9-1.484a3.627,3.627,0,0,0,2.982-1.33A5.644,5.644,0,0,0,85.96-6.468a5.644,5.644,0,0,0-1.078-3.654A3.627,3.627,0,0,0,81.9-11.452Zm9.856,4.06H94v3.864a1.815,1.815,0,0,0,.644,1.582,2.976,2.976,0,0,0,1.764.462,3.91,3.91,0,0,0,1.064-.168,4.454,4.454,0,0,0,.98-.392,1.882,1.882,0,0,1,.308.42,1.191,1.191,0,0,1,.14.588,1.153,1.153,0,0,1-.728,1.008,4.3,4.3,0,0,1-2.016.392A5.356,5.356,0,0,1,92.974-.5a3.3,3.3,0,0,1-1.218-2.884ZM92.9-10.808v-1.848h5.684a1.343,1.343,0,0,1,.168.364,1.671,1.671,0,0,1,.084.532,1.017,1.017,0,0,1-.224.7.782.782,0,0,1-.616.252ZM94-6.552h-2.24V-16.688a3.369,3.369,0,0,1,.434-.126,2.715,2.715,0,0,1,.63-.07,1.381,1.381,0,0,1,.882.238.934.934,0,0,1,.294.77Z" transform="translate(48 31.853)" fill="#193674"/>
      <g id="Group_1" data-name="Group 1" transform="translate(0 3.626)">
        <circle id="Ellipse_1" data-name="Ellipse 1" cx="21.5" cy="21.5" r="21.5" transform="translate(0 -1.772)" fill="#1d63ff"/>
        <g id="bot" transform="translate(10 8.228)">
          <path id="Path_1" data-name="Path 1" d="M78,4.739h-.591V3.447a1.774,1.774,0,1,0-1.183,0V4.739h-7.1V3.447a1.774,1.774,0,1,0-1.183,0V4.739h-.592A2.96,2.96,0,0,0,64.4,7.7V17.751a2.96,2.96,0,0,0,2.957,2.957H69.13v2.366a.592.592,0,0,0,.9.5l4.588-2.867H78a2.96,2.96,0,0,0,2.957-2.957V7.7A2.96,2.96,0,0,0,78,4.739Zm-8.28,3.549A1.776,1.776,0,0,1,71.5,10.062a.591.591,0,0,1-1.183,0,.592.592,0,1,0-1.183,0,.591.591,0,0,1-1.183,0A1.776,1.776,0,0,1,69.722,8.288Zm7.362,7.331a10.62,10.62,0,0,1-8.809,0,.592.592,0,1,1,.529-1.058,9.483,9.483,0,0,0,7.751,0,.591.591,0,1,1,.529,1.058Zm-.264-4.965a.591.591,0,0,1-.592-.591.591.591,0,1,0-1.183,0,.591.591,0,0,1-1.183,0,1.774,1.774,0,1,1,3.549,0,.591.591,0,0,1-.592.591Zm0,0" transform="translate(-60.85)" fill="#fff"/>
          <path id="Path_2" data-name="Path 2" d="M384.99,170.8H384.4v5.915h.591a1.776,1.776,0,0,0,1.774-1.774v-2.366A1.776,1.776,0,0,0,384.99,170.8Zm0,0" transform="translate(-363.106 -161.33)" fill="#fff"/>
          <path id="Path_3" data-name="Path 3" d="M.4,172.575v2.366a1.776,1.776,0,0,0,1.774,1.774h.592V170.8H2.173A1.776,1.776,0,0,0,.4,172.575Zm0,0" transform="translate(-0.398 -161.33)" fill="#fff"/>
        </g>
      </g>
    </g>
  </g>
</svg>
