<svg xmlns="http://www.w3.org/2000/svg" width="29.997" height="23.12" viewBox="0 0 29.997 23.12">
  <g id="premium-quality" transform="translate(-1.001 -4.439)">
    <path id="Path_5018" data-name="Path 5018" d="M2.837,20.977Q1.925,15.046,1.012,9.115a.99.99,0,0,1,1.572-.942L8.27,12.437a1.358,1.358,0,0,0,1.945-.333L14.949,5a1.263,1.263,0,0,1,2.1,0l4.734,7.1a1.358,1.358,0,0,0,1.945.333l5.686-4.264a.99.99,0,0,1,1.572.942q-.913,5.931-1.825,11.862Z" fill="#fff"/>
    <path id="Path_5019" data-name="Path 5019" d="M2.837,23.171H29.163v3.015a1.373,1.373,0,0,1-1.373,1.373H4.21a1.373,1.373,0,0,1-1.373-1.373V23.171Z" fill="#fff"/>
  </g>
</svg>
