<svg xmlns="http://www.w3.org/2000/svg" width="19.344" height="41.451" viewBox="0 0 19.344 41.451">
  <g id="Group_9" data-name="Group 9" transform="translate(-950 -801.545)">
    <g id="mouse-cursor" transform="translate(925.32 800.085)">
      <path id="Path_6" data-name="Path 6" d="M44.532,77.608a.7.7,0,0,1-.7-.7V67.4a.7.7,0,1,1,1.4,0v9.485a.7.7,0,0,1-.7.721Z" transform="translate(-10.185 -34.697)" fill="#a4bcdb"/>
      <path id="Path_7" data-name="Path 7" d="M39.743,84.208a.7.7,0,0,1-.468-.178l-4.213-3.689A.7.7,0,0,1,36,79.288l4.213,3.689a.7.7,0,0,1,.07.988.712.712,0,0,1-.538.243Z" transform="translate(-5.395 -41.297)" fill="#a4bcdb"/>
      <path id="Path_8" data-name="Path 8" d="M44.525,84.208a.7.7,0,0,1-.468-1.231l4.213-3.689a.7.7,0,0,1,.936,1.053L44.993,84.03A.688.688,0,0,1,44.525,84.208Z" transform="translate(-10.178 -41.297)" fill="#a4bcdb"/>
      <path id="Path_9" data-name="Path 9" d="M36.936,29.208H31.754a7.083,7.083,0,0,1-7.074-7.074V8.557a7.083,7.083,0,0,1,7.074-7.1h5.183a7.079,7.079,0,0,1,7.088,7.074v13.6A7.079,7.079,0,0,1,36.936,29.208ZM31.754,2.864a5.674,5.674,0,0,0-5.669,5.669v13.6A5.679,5.679,0,0,0,31.754,27.8h5.183a5.674,5.674,0,0,0,5.683-5.669V8.557a5.674,5.674,0,0,0-5.683-5.693Z" transform="translate(0)" fill="#a4bcdb"/>
      <path id="Path_10" data-name="Path 10" d="M44.532,20.77a.7.7,0,0,1-.7-.7V16.542a.7.7,0,1,1,1.4,0v3.525A.7.7,0,0,1,44.532,20.77Z" transform="translate(-10.185 -7.648)" fill="#a4bcdb"/>
    </g>
  </g>
</svg>
