<svg xmlns="http://www.w3.org/2000/svg" width="10.167" height="6.061" viewBox="0 0 10.167 6.061">
  <g id="eye" transform="translate(0 -98.725)">
    <path id="Path_8210" data-name="Path 8210" d="M5.084,98.725a6.343,6.343,0,0,0-5,2.789.4.4,0,0,0,0,.48,6.34,6.34,0,0,0,5,2.791,6.343,6.343,0,0,0,5-2.789.4.4,0,0,0,0-.48A6.34,6.34,0,0,0,5.084,98.725Zm.139,5.164a2.139,2.139,0,1,1,1.995-1.995A2.14,2.14,0,0,1,5.223,103.889Zm-.064-.986a1.152,1.152,0,1,1,1.075-1.075A1.15,1.15,0,0,1,5.159,102.9Z" transform="translate(0 0)" fill="#193674"/>
  </g>
</svg>
