<svg xmlns="http://www.w3.org/2000/svg" width="27" height="28.212" viewBox="0 0 27 28.212">
  <g id="woman" transform="translate(-10.998 0)">
    <path id="Path_8216" data-name="Path 8216" d="M35.764,42.935a13.5,13.5,0,1,0-22.532,0Z" transform="translate(0 -20.784)" fill="#1d63ff"/>
    <path id="Path_8217" data-name="Path 8217" d="M220.392,1.459a3.2,3.2,0,0,0,1.085,2.385c2.371,2.371,4.391,8.861,4.413,8.931a1.637,1.637,0,0,0,.91.9,1.932,1.932,0,0,0,1.44-.116,6.486,6.486,0,0,1,.6-1.31c2.544-4.4-.533-6.144-1.525-9.158A4.3,4.3,0,0,0,224.9.547,6.013,6.013,0,0,0,220.72.236a2.961,2.961,0,0,0-.327,1.223Z" transform="translate(-197.854)" fill="#56415e"/>
    <path id="Path_8218" data-name="Path 8218" d="M134.952,23.787c2.827-3.718-.876-3.739.208-6.915a1.546,1.546,0,0,1-2.3-.694s-2.02-6.551-4.435-8.966a2.818,2.818,0,0,1-.7-3.576,5.967,5.967,0,0,0-.967.347,4.3,4.3,0,0,0-2.413,2.545c-.992,3.015-4.069,4.754-1.525,9.158s-2.379,3.969.762,8.1h11.366Z" transform="translate(-104.734 -3.436)" fill="#45304c"/>
    <path id="Path_8219" data-name="Path 8219" d="M160.464,154.308a.915.915,0,0,0,.767.294c-.011-.048-.023-.1-.034-.145a10.6,10.6,0,0,1-.1-1.949A2.363,2.363,0,0,0,160.464,154.308Z" transform="translate(-141.228 -144.105)" fill="#fc9460"/>
    <path id="Path_8220" data-name="Path 8220" d="M340.418,152.508a10.6,10.6,0,0,1-.1,1.949c-.011.049-.023.1-.034.145a.915.915,0,0,0,.767-.294A2.363,2.363,0,0,0,340.418,152.508Z" transform="translate(-311.138 -144.105)" fill="#ffaa7b"/>
    <path id="Path_8221" data-name="Path 8221" d="M203.822,276.757a.461.461,0,0,1,.066.711c-.015.023-.119.1-.044.17,2.083,1.975.435,1.953,2.561-.037.1-.091-.076-.139-.132-.341a.478.478,0,0,1,.188-.5,4.246,4.246,0,0,0,1.669-2.168,1.591,1.591,0,0,1-.74-1.2v-.428a2.853,2.853,0,0,1-4.569,0v.428a1.544,1.544,0,0,1-.683,1.152A4.253,4.253,0,0,0,203.822,276.757Z" transform="translate(-180.608 -257.923)" fill="#ffaa7b"/>
    <path id="Path_8222" data-name="Path 8222" d="M205.138,274.107l-.032,0a4.223,4.223,0,0,1-2.285-1.144v.428a1.544,1.544,0,0,1-.683,1.152,4.254,4.254,0,0,0,1.661,2.2c.023-.016.046-.034.069-.052A3.665,3.665,0,0,0,205.138,274.107Z" transform="translate(-180.608 -257.923)" fill="#fc9460"/>
    <path id="Path_8223" data-name="Path 8223" d="M262.352,355.683l-.583-.668a8.343,8.343,0,0,0-1.044,1.152A3.853,3.853,0,0,0,262.352,355.683Z" transform="translate(-235.967 -335.453)" fill="#d3dcfb"/>
    <path id="Path_8224" data-name="Path 8224" d="M223.725,356.166a8.35,8.35,0,0,0-1.043-1.151l-.563.645A3.485,3.485,0,0,0,223.725,356.166Z" transform="translate(-199.488 -335.453)" fill="#d3dcfb"/>
    <path id="Path_8225" data-name="Path 8225" d="M144.759,323.235a4.2,4.2,0,0,0-2.984-2.277,19.553,19.553,0,0,1-2.864-.787.526.526,0,0,1-.015.282,20.389,20.389,0,0,1-1.326,3,.61.61,0,0,1-.994.119,4.922,4.922,0,0,1-2.612.77,4.472,4.472,0,0,1-2.56-.794l-.015.017a.611.611,0,0,1-1-.112c-.14-.262-.3-.575-.47-.925,0,.025-.007.05-.01.076a7.078,7.078,0,0,0-1.485.658,2.677,2.677,0,0,0-1.561,2.2v3.259a13.5,13.5,0,0,0,18.382-4.035A6.507,6.507,0,0,0,144.759,323.235Z" transform="translate(-109.482 -302.529)" fill="#395dcb"/>
    <path id="Path_8226" data-name="Path 8226" d="M55.773,325.455c0-1.945,3.041-2.79,3.041-2.79h0a19.011,19.011,0,0,1-.924-2.213.525.525,0,0,1-.015-.282,19.548,19.548,0,0,1-2.864.787,4.2,4.2,0,0,0-2.984,2.277,6.5,6.5,0,0,0-.487,1.446,13.574,13.574,0,0,0,4.233,4.086C55.773,327.833,55.773,326.539,55.773,325.455Z" transform="translate(-38.308 -302.528)" fill="#2044b2"/>
    <path id="Path_8227" data-name="Path 8227" d="M233.192,72.493c-.563-.662-1.325-1.092-1.325-2.392,0-3.3-3.222-2.119-3.222-2.119a.559.559,0,0,1-.4,0,3.952,3.952,0,0,0-.829-.183l.019.019s-2.62,7.759,2.46,11.92l.055.046a5.352,5.352,0,0,0,1.807-1.851,12.466,12.466,0,0,0,1.329-3.533A9.918,9.918,0,0,0,233.192,72.493Z" transform="translate(-203.871 -64.042)" fill="#ffc7ab"/>
    <path id="Path_8228" data-name="Path 8228" d="M172.458,77.935A5.407,5.407,0,0,0,175,80.174a1.932,1.932,0,0,0,1.529,0,5.65,5.65,0,0,0,.814-.434c-5.079-4.161-2.46-11.92-2.46-11.92-.946-.142-2.542-.039-2.542,2.283,0,1.3-.76,1.729-1.323,2.39a9.325,9.325,0,0,0,.106,1.912A12.463,12.463,0,0,0,172.458,77.935Z" transform="translate(-151.197 -64.043)" fill="#ffaa7b"/>
    <path id="Path_8229" data-name="Path 8229" d="M203.89,363.412a4.383,4.383,0,0,0,2.856,1,4.885,4.885,0,0,0,2.966-1l-.822-.915a3.675,3.675,0,0,1-2.129.666,3.288,3.288,0,0,1-2.05-.666Z" transform="translate(-182.263 -342.523)" fill="#2044b2"/>
    <path id="Path_8230" data-name="Path 8230" d="M185.07,328.108a4.07,4.07,0,0,1-.828-.726,2.366,2.366,0,0,0-2,1.99c.169.351.331.667.474.932a.694.694,0,0,0,1.136.127l1.325-1.517A.54.54,0,0,0,185.07,328.108Z" transform="translate(-161.81 -309.343)" fill="#deeeff"/>
    <path id="Path_8231" data-name="Path 8231" d="M169.044,296.836a4.3,4.3,0,0,1-.893-1.53.482.482,0,0,0-.726-.247,6.383,6.383,0,0,0-1.171,1,.616.616,0,0,0-.132.614,19.023,19.023,0,0,0,.913,2.192l.017-.005A2.287,2.287,0,0,1,169.044,296.836Z" transform="translate(-146.547 -278.724)" fill="#d3dcfb"/>
    <path id="Path_8232" data-name="Path 8232" d="M279.193,296.061a6.384,6.384,0,0,0-1.171-1,.482.482,0,0,0-.726.247,4.2,4.2,0,0,1-1.656,2.183.541.541,0,0,0-.108.806l1.325,1.517a.694.694,0,0,0,1.136-.127,20.442,20.442,0,0,0,1.332-3.011A.617.617,0,0,0,279.193,296.061Z" transform="translate(-249.832 -278.724)" fill="#deeeff"/>
    <path id="Path_8233" data-name="Path 8233" d="M15.941,90.356c-1.139-2.388-.624-4.371.11-6.307a2.565,2.565,0,0,0-.383-2.384,13.513,13.513,0,0,0-3.838,14.886,4.82,4.82,0,0,1,2.531-1.744C15.831,94.3,17.08,92.744,15.941,90.356Z" transform="translate(-0.001 -77.166)" fill="#437dff"/>
    <path id="Path_8234" data-name="Path 8234" d="M403.71,90.356c1.139-2.388.624-4.371-.11-6.307a2.565,2.565,0,0,1,.383-2.384,13.513,13.513,0,0,1,3.838,14.886,4.82,4.82,0,0,0-2.531-1.744C403.82,94.3,402.571,92.744,403.71,90.356Z" transform="translate(-370.654 -77.166)" fill="#437dff"/>
    <path id="Path_8235" data-name="Path 8235" d="M398.293,394.179a3.36,3.36,0,0,0-1.5-2.09.516.516,0,0,0-.794.435V396.2A13.576,13.576,0,0,0,398.293,394.179Z" transform="translate(-363.788 -370.408)" fill="#2044b2"/>
  </g>
</svg>
